<?xml version="1.0" ?>
<!-- Uploaded to: SVG Repo, www.svgrepo.com, Generator: SVG Repo Mixer Tools -->
<svg width="800px" height="800px" viewBox="0 0 64 64" id="Layer_1" version="1.1" xml:space="preserve" xmlns="http://www.w3.org/2000/svg" xmlns:xlink="http://www.w3.org/1999/xlink">
<style type="text/css">
	.st0{fill:none;stroke:#126BB5;stroke-width:2;stroke-linecap:round;stroke-linejoin:round;stroke-miterlimit:10;}
	.st1{fill:none;stroke:#00B1E4;stroke-width:2;stroke-linecap:round;stroke-linejoin:round;stroke-miterlimit:10;}
	.st2{fill:none;stroke:#00B1E4;stroke-width:2;stroke-linejoin:round;stroke-miterlimit:10;}
	.st3{fill:#FFFFFF;stroke:#00B1E4;stroke-width:2;stroke-linecap:round;stroke-linejoin:round;stroke-miterlimit:10;}
	.st4{fill:#00B1E4;}
	.st5{fill:none;stroke:#126BB5;stroke-width:2;stroke-miterlimit:10;}
	.st6{fill:none;stroke:#00B1E4;stroke-width:2;stroke-miterlimit:10;}
	.st7{fill:none;stroke:#2B3088;stroke-width:2;stroke-linejoin:round;stroke-miterlimit:10;}
	.st8{fill:none;stroke:#126BB5;stroke-width:2;stroke-linecap:round;stroke-miterlimit:10;}
	.st9{fill:none;stroke:#00B1E4;stroke-width:2;stroke-linecap:round;stroke-miterlimit:10;}
</style>
<path class="st0" d="M52,37c0,2.8-1.1,5.3-2.9,7.1S44.8,47,42,47H22c-5.5,0-10-4.5-10-10c0-2.8,1.1-5.3,2.9-7.1S19.2,27,22,27  c0-2.8,1.1-5.3,2.9-7.1S29.2,17,32,17s5.3,1.1,7.1,2.9S42,24.2,42,27C47.5,27,52,31.5,52,37z"/>
<g>
<path class="st2" d="M36.7,40h-9.3c-0.2,0-0.3-0.1-0.3-0.3v-7.3c0-0.2,0.1-0.3,0.3-0.3h9.3c0.2,0,0.3,0.1,0.3,0.3v7.3   C37,39.9,36.9,40,36.7,40z"/>
<path class="st2" d="M35,32h-6c-0.2,0-0.3-0.1-0.3-0.3v-1.4c0-1.8,1.5-3.3,3.3-3.3H32c1.8,0,3.3,1.5,3.3,3.3v1.4   C35.3,31.9,35.2,32,35,32z"/>
<line class="st1" x1="32" x2="32" y1="36" y2="36"/>
</g>
</svg>